<svg xmlns="http://www.w3.org/2000/svg" xmlns:xlink="http://www.w3.org/1999/xlink" version="1.1" width="256" height="256" viewBox="0 0 256 256" xml:space="preserve">
<g style="stroke: none; stroke-width: 0; stroke-dasharray: none; stroke-linecap: butt; stroke-linejoin: miter; stroke-miterlimit: 10; fill: none; fill-rule: nonzero; opacity: 1;" transform="translate(1.4065934065934016 1.4065934065934016) scale(2.81 2.81)">
	<path d="M 85.579 71.752 H 61.852 v -2 h 23.728 c 1.335 0 2.421 -1.086 2.421 -2.421 V 12.078 c 0 -1.335 -1.086 -2.421 -2.421 -2.421 H 4.421 C 3.086 9.657 2 10.743 2 12.078 v 55.254 c 0 1.335 1.086 2.421 2.421 2.421 h 45.71 v 2 H 4.421 C 1.983 71.752 0 69.769 0 67.332 V 12.078 C 0 9.64 1.983 7.657 4.421 7.657 h 81.158 C 88.017 7.657 90 9.64 90 12.078 v 55.254 C 90 69.769 88.017 71.752 85.579 71.752 z" style="stroke: none; stroke-width: 1; stroke-dasharray: none; stroke-linecap: butt; stroke-linejoin: miter; stroke-miterlimit: 10; fill: rgb(0,0,0); fill-rule: nonzero; opacity: 1;" transform=" matrix(1 0 0 1 0 0) " stroke-linecap="round"/>
	<path d="M 90 21.933 H 0 v -9.855 C 0 9.64 1.983 7.657 4.421 7.657 h 81.158 C 88.017 7.657 90 9.64 90 12.078 V 21.933 z M 2 19.933 h 86 v -7.855 c 0 -1.335 -1.086 -2.421 -2.421 -2.421 H 4.421 C 3.086 9.657 2 10.743 2 12.078 V 19.933 z" style="stroke: none; stroke-width: 1; stroke-dasharray: none; stroke-linecap: butt; stroke-linejoin: miter; stroke-miterlimit: 10; fill: rgb(0,0,0); fill-rule: nonzero; opacity: 1;" transform=" matrix(1 0 0 1 0 0) " stroke-linecap="round"/>
	<path d="M 43.306 15.795 H 6.694 c -0.552 0 -1 -0.448 -1 -1 s 0.448 -1 1 -1 h 36.612 c 0.552 0 1 0.448 1 1 S 43.858 15.795 43.306 15.795 z" style="stroke: none; stroke-width: 1; stroke-dasharray: none; stroke-linecap: butt; stroke-linejoin: miter; stroke-miterlimit: 10; fill: rgb(0,0,0); fill-rule: nonzero; opacity: 1;" transform=" matrix(1 0 0 1 0 0) " stroke-linecap="round"/>
	<path d="M 83.307 15.795 h -4.613 c -0.553 0 -1 -0.448 -1 -1 s 0.447 -1 1 -1 h 4.613 c 0.553 0 1 0.448 1 1 S 83.859 15.795 83.307 15.795 z" style="stroke: none; stroke-width: 1; stroke-dasharray: none; stroke-linecap: butt; stroke-linejoin: miter; stroke-miterlimit: 10; fill: rgb(0,0,0); fill-rule: nonzero; opacity: 1;" transform=" matrix(1 0 0 1 0 0) " stroke-linecap="round"/>
	<path d="M 28.549 47.5 c -0.443 0 -0.835 -0.292 -0.96 -0.719 l -3.016 -10.31 l -3.016 10.31 c -0.126 0.433 -0.493 0.74 -0.979 0.719 c -0.451 -0.009 -0.841 -0.319 -0.951 -0.757 l -3.407 -13.59 c -0.135 -0.536 0.191 -1.079 0.727 -1.213 c 0.537 -0.134 1.079 0.191 1.213 0.727 l 2.512 10.018 l 2.941 -10.055 c 0.125 -0.426 0.516 -0.719 0.96 -0.719 s 0.835 0.293 0.96 0.719 l 2.941 10.055 l 2.512 -10.018 c 0.135 -0.536 0.679 -0.861 1.213 -0.727 c 0.536 0.134 0.861 0.677 0.727 1.213 l -3.407 13.59 c -0.11 0.438 -0.5 0.748 -0.951 0.757 C 28.562 47.5 28.556 47.5 28.549 47.5 z" style="stroke: none; stroke-width: 1; stroke-dasharray: none; stroke-linecap: butt; stroke-linejoin: miter; stroke-miterlimit: 10; fill: rgb(0,0,0); fill-rule: nonzero; opacity: 1;" transform=" matrix(1 0 0 1 0 0) " stroke-linecap="round"/>
	<path d="M 48.976 47.5 c -0.443 0 -0.835 -0.292 -0.96 -0.719 L 45 36.471 l -3.016 10.31 c -0.125 0.427 -0.517 0.719 -0.96 0.719 c -0.006 0 -0.013 0 -0.02 0 c -0.451 -0.009 -0.841 -0.319 -0.951 -0.757 l -3.407 -13.59 c -0.135 -0.536 0.191 -1.079 0.727 -1.213 c 0.536 -0.134 1.079 0.191 1.213 0.727 l 2.512 10.018 l 2.941 -10.055 c 0.125 -0.426 0.516 -0.719 0.96 -0.719 s 0.835 0.293 0.96 0.719 l 2.941 10.056 l 2.513 -10.018 c 0.134 -0.537 0.676 -0.862 1.213 -0.727 c 0.536 0.134 0.861 0.677 0.727 1.213 l -3.408 13.59 c -0.109 0.438 -0.499 0.748 -0.95 0.757 C 48.988 47.5 48.981 47.5 48.976 47.5 z" style="stroke: none; stroke-width: 1; stroke-dasharray: none; stroke-linecap: butt; stroke-linejoin: miter; stroke-miterlimit: 10; fill: rgb(0,0,0); fill-rule: nonzero; opacity: 1;" transform=" matrix(1 0 0 1 0 0) " stroke-linecap="round"/>
	<path d="M 61.45 47.5 c -0.007 0 -0.013 0 -0.02 0 c -0.451 -0.009 -0.841 -0.319 -0.95 -0.757 l -3.407 -13.59 c -0.135 -0.536 0.19 -1.079 0.727 -1.213 c 0.537 -0.13 1.079 0.191 1.213 0.727 l 2.512 10.018 l 2.942 -10.056 c 0.125 -0.426 0.516 -0.719 0.96 -0.719 l 0 0 c 0.444 0 0.835 0.293 0.96 0.719 l 2.941 10.055 l 2.512 -10.018 c 0.134 -0.537 0.677 -0.859 1.213 -0.727 c 0.536 0.135 0.861 0.678 0.727 1.213 l -3.407 13.59 c -0.109 0.438 -0.499 0.748 -0.95 0.757 c -0.007 0 -0.014 0 -0.02 0 c -0.443 0 -0.835 -0.292 -0.96 -0.719 l -3.016 -10.31 l -3.017 10.31 C 62.285 47.208 61.894 47.5 61.45 47.5 z" style="stroke: none; stroke-width: 1; stroke-dasharray: none; stroke-linecap: butt; stroke-linejoin: miter; stroke-miterlimit: 10; fill: rgb(0,0,0); fill-rule: nonzero; opacity: 1;" transform=" matrix(1 0 0 1 0 0) " stroke-linecap="round"/>
	<path d="M 62.198 82.343 c -0.044 0 -0.088 -0.003 -0.131 -0.009 c -0.264 -0.035 -0.502 -0.173 -0.663 -0.383 l -6.209 -8.105 l -3.037 2.328 c -0.261 0.2 -0.604 0.258 -0.913 0.158 c -0.313 -0.1 -0.556 -0.346 -0.651 -0.659 l -6.643 -21.677 c -0.123 -0.399 0.016 -0.833 0.348 -1.087 c 0.331 -0.253 0.787 -0.274 1.14 -0.053 L 64.64 64.913 c 0.277 0.174 0.451 0.473 0.467 0.8 c 0.015 0.327 -0.131 0.642 -0.391 0.841 l -3.038 2.327 l 6.209 8.104 c 0.336 0.438 0.253 1.066 -0.186 1.402 l -4.895 3.75 C 62.631 82.272 62.417 82.343 62.198 82.343 z M 55.381 71.444 c 0.044 0 0.088 0.003 0.131 0.009 c 0.264 0.034 0.502 0.173 0.663 0.383 l 6.209 8.105 l 3.307 -2.533 l -6.209 -8.104 c -0.161 -0.211 -0.232 -0.477 -0.197 -0.739 c 0.035 -0.264 0.173 -0.502 0.383 -0.663 l 2.689 -2.061 L 46.65 55.979 l 5.434 17.731 l 2.688 -2.061 C 54.948 71.516 55.162 71.444 55.381 71.444 z" style="stroke: none; stroke-width: 1; stroke-dasharray: none; stroke-linecap: butt; stroke-linejoin: miter; stroke-miterlimit: 10; fill: rgb(0,0,0); fill-rule: nonzero; opacity: 1;" transform=" matrix(1 0 0 1 0 0) " stroke-linecap="round"/>
</g>
</svg>